# xmcd CD database file generated by Grip 2.95
# 
# Track frame offsets:
#       150
#       18888
#       35643
#       52968
#       71335
#       90569
#       104357
#       125517
#       150192
#       167797
#       188457
# 
# Disc length: 2929 seconds
# 
# Revision: 3
# Processed by: cddbd v1.4PL0 Copyright (c) Steve Scherf et al.
# Submitted via: Grip 2.95
# 
DISCID=7b0b6f0b
DTITLE=The Spirit of '29 - Play Ball!
DYEAR=1900
DGENRE=
TTITLE0=Take Me Out To The Ball Game
TTITLE1=Back Home Again In Indiana
TTITLE2=Honeysuckle Rose
TTITLE3=The Sheik Of Araby
TTITLE4=St. James Infirmary
TTITLE5=Has Anybody Seen My Gal?
TTITLE6=I Can't Give You Anything But Love
TTITLE7=Early Morning Blues
TTITLE8=San Francisco Bay Blues
TTITLE9=Blue Skies
TTITLE10=Tin Roof Blues
EXTD=
EXTT0=
EXTT1=
EXTT2=
EXTT3=
EXTT4=
EXTT5=
EXTT6=
EXTT7=
EXTT8=
EXTT9=
EXTT10=
PLAYORDER=
